<svg xmlns="http://www.w3.org/2000/svg" viewBox="0 0 120 120" role="img" aria-label="Logo Lycée Étoile Brillante">
  <rect width="120" height="120" rx="10" fill="#ffffff"/>
  <!-- Star shape -->
  <polygon points="60,14 66.5,40.5 93,40.5 71.5,56.5 79,83 60,67 41,83 48.5,56.5 27,40.5 53.5,40.5" fill="#1a4d8c" opacity="0.15"/>
  <polygon points="60,18 65.5,38 86,38 69.5,51 75.5,72 60,59.5 44.5,72 50.5,51 34,38 54.5,38" fill="none" stroke="#1a4d8c" stroke-width="2" stroke-linejoin="round"/>
  <!-- Inner star highlight -->
  <polygon points="60,26 63.5,37.5 75.5,37.5 65.5,44.5 69,56 60,49.5 51,56 54.5,44.5 44.5,37.5 56.5,37.5" fill="#1a4d8c" opacity="0.5"/>
  <circle cx="60" cy="37" r="3.5" fill="#1a4d8c"/>
  <!-- Rays -->
  <line x1="60" y1="6" x2="60" y2="13" stroke="#1a4d8c" stroke-width="2" stroke-linecap="round" opacity="0.6"/>
  <line x1="88" y1="14" x2="83.5" y2="19" stroke="#1a4d8c" stroke-width="2" stroke-linecap="round" opacity="0.6"/>
  <line x1="32" y1="14" x2="36.5" y2="19" stroke="#1a4d8c" stroke-width="2" stroke-linecap="round" opacity="0.6"/>
  <!-- Text below -->
  <text x="60" y="92" text-anchor="middle" font-family="Georgia, serif" font-size="7.5" font-weight="bold" fill="#1a4d8c" letter-spacing="0.5">LYCÉE</text>
  <text x="60" y="102" text-anchor="middle" font-family="Georgia, serif" font-size="6.5" fill="#1a4d8c" letter-spacing="0.3">ÉTOILE BRILLANTE</text>
  <line x1="20" y1="106" x2="100" y2="106" stroke="#1a4d8c" stroke-width="0.8" opacity="0.4"/>
</svg>
